<svg width="24" height="24" viewBox="0 0 24 24" fill="none" xmlns="http://www.w3.org/2000/svg">
<g id="Group">
<path id="Vector" d="M6.10352e-05 24L1.69633 17.8403C0.647625 16.0323 0.0974822 13.9848 0.103213 11.8916C0.103213 5.3327 5.46711 0 12.0516 0C15.2493 0 18.2522 1.23764 20.5043 3.48479C22.7622 5.73194 24.0058 8.72054 24 11.8973C24 18.4563 18.6362 23.789 12.0459 23.789H12.0402C10.0402 23.789 8.07455 23.2871 6.3267 22.3403L6.10352e-05 24ZM6.63043 20.1901L6.99146 20.4068C8.51581 21.308 10.2637 21.7814 12.0459 21.7871H12.0516C17.5244 21.7871 21.9829 17.3555 21.9829 11.903C21.9829 9.26236 20.9513 6.78137 19.0774 4.91065C17.2035 3.03992 14.7049 2.01331 12.0516 2.01331C6.57885 2.00761 2.1204 6.43917 2.1204 11.8916C2.1204 13.7567 2.64189 15.5761 3.63903 17.1502L3.87398 17.5266L2.87112 21.1711L6.63043 20.1901Z" fill="white"/>
<path id="Vector_2" d="M6.10352e-05 24L1.69633 17.8403C0.647625 16.0323 0.0974822 13.9848 0.103213 11.8916C0.103213 5.3327 5.46711 0 12.0516 0C15.2493 0 18.2522 1.23764 20.5043 3.48479C22.7622 5.73194 24.0058 8.72054 24 11.8973C24 18.4563 18.6362 23.789 12.0459 23.789H12.0402C10.0402 23.789 8.07455 23.2871 6.3267 22.3403L6.10352e-05 24ZM6.63043 20.1901L6.99146 20.4068C8.51581 21.308 10.2637 21.7814 12.0459 21.7871H12.0516C17.5244 21.7871 21.9829 17.3555 21.9829 11.903C21.9829 9.26236 20.9513 6.78137 19.0774 4.91065C17.2035 3.03992 14.7049 2.01331 12.0516 2.01331C6.57885 2.00761 2.1204 6.43917 2.1204 11.8916C2.1204 13.7567 2.64189 15.5761 3.63903 17.1502L3.87398 17.5266L2.87112 21.1711L6.63043 20.1901Z" fill="white"/>
<path id="Vector_3" fillRule="evenodd" clipRule="evenodd" d="M9.06585 6.91843C8.84235 6.42223 8.6074 6.41082 8.39536 6.40512C8.22344 6.39941 8.02287 6.39941 7.8223 6.39941C7.62172 6.39941 7.30081 6.47356 7.02574 6.77014C6.75067 7.06671 5.98276 7.78535 5.98276 9.25113C5.98276 10.7112 7.05439 12.1257 7.20339 12.3253C7.35238 12.5249 9.27215 15.6218 12.3037 16.8139C14.8252 17.8063 15.3409 17.6066 15.8853 17.5553C16.4297 17.504 17.6504 16.8367 17.9025 16.1409C18.1489 15.445 18.1489 14.8519 18.0744 14.7264C17.9999 14.6009 17.7994 14.5268 17.5014 14.3785C17.2034 14.2302 15.7363 13.5116 15.4613 13.4089C15.1862 13.312 14.9856 13.2606 14.7908 13.5572C14.5902 13.8538 14.0171 14.5211 13.8452 14.7207C13.6733 14.9203 13.4956 14.9431 13.1977 14.7949C12.8997 14.6466 11.9369 14.3329 10.7965 13.3177C9.90826 12.5306 9.30654 11.5553 9.13462 11.2587C8.9627 10.9622 9.11743 10.8025 9.26642 10.6542C9.39823 10.523 9.56442 10.3063 9.71341 10.1352C9.86241 9.96405 9.91399 9.83858 10.0114 9.63896C10.1088 9.43934 10.063 9.26824 9.98849 9.11995C9.91399 8.97736 9.32946 7.50588 9.06585 6.91843Z" fill="white"/>
</g>
</svg>
