<svg width="40" height="40" viewBox="0 0 40 40" fill="none" xmlns="http://www.w3.org/2000/svg">
<path d="M16.6667 3.3335V7.10016L20 9.31683V6.66683H36.6667V31.6668H28.3333V35.0002H40V3.3335H16.6667ZM12.5 8.3335L0 16.6668V35.0002H25V16.6668L12.5 8.3335ZM23.3333 10.0002V11.5502L26.0167 13.3335H26.6667V10.0002H23.3333ZM30 10.0002V13.3335H33.3333V10.0002H30ZM12.5 12.5002L21.6667 18.3335V31.6668H16.6667V21.6668H8.33333V31.6668H3.33333V18.3335L12.5 12.5002ZM30 16.6668V20.0002H33.3333V16.6668H30ZM30 23.3335V26.6668H33.3333V23.3335H30Z" fill="#8E8E8E"/>
</svg>
